<svg width="33" height="33" viewBox="0 0 33 33" fill="none" xmlns="http://www.w3.org/2000/svg">
<path d="M4.12501 23.375H28.875C29.2646 23.375 29.5914 23.507 29.8554 23.771C30.1194 24.035 30.2509 24.3613 30.25 24.75C30.2491 25.1387 30.1171 25.4654 29.854 25.7304C29.5909 25.9953 29.2646 26.1268 28.875 26.125H4.12501C3.73542 26.125 3.40909 25.993 3.14601 25.729C2.88292 25.465 2.75092 25.1387 2.75001 24.75C2.74909 24.3613 2.88109 24.035 3.14601 23.771C3.41092 23.507 3.73726 23.375 4.12501 23.375ZM5.50001 15.7437L4.84688 16.9125C4.70938 17.1646 4.50313 17.325 4.22813 17.3937C3.95313 17.4625 3.68959 17.4281 3.43751 17.2906C3.18542 17.1531 3.02501 16.9469 2.95626 16.6719C2.88751 16.3969 2.92188 16.1333 3.05938 15.8812L3.71251 14.7125H2.40626C2.10834 14.7125 1.86221 14.6153 1.66788 14.421C1.47355 14.2267 1.37592 13.9801 1.37501 13.6812C1.37409 13.3824 1.47171 13.1363 1.66788 12.9429C1.86405 12.7494 2.11017 12.6518 2.40626 12.65H3.71251L3.05938 11.55C2.92188 11.2979 2.88751 11.0344 2.95626 10.7594C3.02501 10.4844 3.18542 10.2781 3.43751 10.1406C3.68959 10.0031 3.95313 9.96874 4.22813 10.0375C4.50313 10.1062 4.70938 10.2667 4.84688 10.5187L5.50001 11.6187L6.15313 10.5187C6.29063 10.2667 6.49688 10.1062 6.77188 10.0375C7.04688 9.96874 7.31042 10.0031 7.56251 10.1406C7.81459 10.2781 7.97501 10.4844 8.04376 10.7594C8.11251 11.0344 8.07813 11.2979 7.94063 11.55L7.28751 12.65H8.59376C8.89167 12.65 9.13826 12.7476 9.33351 12.9429C9.52876 13.1381 9.62592 13.3842 9.62501 13.6812C9.62409 13.9782 9.52647 14.2248 9.33213 14.421C9.1378 14.6172 8.89167 14.7143 8.59376 14.7125H7.28751L7.94063 15.8812C8.07813 16.1333 8.11251 16.3969 8.04376 16.6719C7.97501 16.9469 7.81459 17.1531 7.56251 17.2906C7.31042 17.4281 7.04688 17.4625 6.77188 17.3937C6.49688 17.325 6.29063 17.1646 6.15313 16.9125L5.50001 15.7437ZM16.5 15.7437L15.8469 16.9125C15.7094 17.1646 15.5031 17.325 15.2281 17.3937C14.9531 17.4625 14.6896 17.4281 14.4375 17.2906C14.1854 17.1531 14.025 16.9469 13.9563 16.6719C13.8875 16.3969 13.9219 16.1333 14.0594 15.8812L14.7125 14.7125H13.4063C13.1083 14.7125 12.8622 14.6153 12.6679 14.421C12.4735 14.2267 12.3759 13.9801 12.375 13.6812C12.3741 13.3824 12.4717 13.1363 12.6679 12.9429C12.864 12.7494 13.1102 12.6518 13.4063 12.65H14.7125L14.0594 11.55C13.9219 11.2979 13.8875 11.0344 13.9563 10.7594C14.025 10.4844 14.1854 10.2781 14.4375 10.1406C14.6896 10.0031 14.9531 9.96874 15.2281 10.0375C15.5031 10.1062 15.7094 10.2667 15.8469 10.5187L16.5 11.6187L17.1531 10.5187C17.2906 10.2667 17.4969 10.1062 17.7719 10.0375C18.0469 9.96874 18.3104 10.0031 18.5625 10.1406C18.8146 10.2781 18.975 10.4844 19.0438 10.7594C19.1125 11.0344 19.0781 11.2979 18.9406 11.55L18.2875 12.65H19.5938C19.8917 12.65 20.1378 12.7476 20.3321 12.9429C20.5265 13.1381 20.6241 13.3842 20.625 13.6812C20.6259 13.9782 20.5283 14.2248 20.3321 14.421C20.136 14.6172 19.8898 14.7143 19.5938 14.7125H18.2875L18.9406 15.8812C19.0781 16.1333 19.1125 16.3969 19.0438 16.6719C18.975 16.9469 18.8146 17.1531 18.5625 17.2906C18.3104 17.4281 18.0469 17.4625 17.7719 17.3937C17.4969 17.325 17.2906 17.1646 17.1531 16.9125L16.5 15.7437ZM27.5 15.7437L26.8469 16.9125C26.7094 17.1646 26.5031 17.325 26.2281 17.3937C25.9531 17.4625 25.6896 17.4281 25.4375 17.2906C25.1854 17.1531 25.025 16.9469 24.9563 16.6719C24.8875 16.3969 24.9219 16.1333 25.0594 15.8812L25.7125 14.7125H24.4063C24.1083 14.7125 23.8622 14.6153 23.6679 14.421C23.4735 14.2267 23.3759 13.9801 23.375 13.6812C23.3741 13.3824 23.4717 13.1363 23.6679 12.9429C23.864 12.7494 24.1102 12.6518 24.4063 12.65H25.7125L25.0594 11.55C24.9219 11.2979 24.8875 11.0344 24.9563 10.7594C25.025 10.4844 25.1854 10.2781 25.4375 10.1406C25.6896 10.0031 25.9531 9.96874 26.2281 10.0375C26.5031 10.1062 26.7094 10.2667 26.8469 10.5187L27.5 11.6187L28.1531 10.5187C28.2906 10.2667 28.4969 10.1062 28.7719 10.0375C29.0469 9.96874 29.3104 10.0031 29.5625 10.1406C29.8146 10.2781 29.975 10.4844 30.0438 10.7594C30.1125 11.0344 30.0781 11.2979 29.9406 11.55L29.2875 12.65H30.5938C30.8917 12.65 31.1383 12.7476 31.3335 12.9429C31.5288 13.1381 31.6259 13.3842 31.625 13.6812C31.6241 13.9782 31.5265 14.2248 31.3321 14.421C31.1378 14.6172 30.8917 14.7143 30.5938 14.7125H29.2875L29.9406 15.8812C30.0781 16.1333 30.1125 16.3969 30.0438 16.6719C29.975 16.9469 29.8146 17.1531 29.5625 17.2906C29.3104 17.4281 29.0469 17.4625 28.7719 17.3937C28.4969 17.325 28.2906 17.1646 28.1531 16.9125L27.5 15.7437Z" fill="#888888"/>
</svg>
