<svg width="33" height="33" viewBox="0 0 33 33" fill="none" xmlns="http://www.w3.org/2000/svg">
<path d="M8.04375 23.5125C9.2125 22.6188 10.5188 21.9143 11.9625 21.3991C13.4063 20.884 14.9188 20.6259 16.5 20.625C18.0813 20.6241 19.5938 20.8821 21.0375 21.3991C22.4813 21.9161 23.7875 22.6206 24.9563 23.5125C25.7583 22.5729 26.383 21.5073 26.8304 20.3156C27.2777 19.124 27.5009 17.8521 27.5 16.5C27.5 13.4521 26.4289 10.8565 24.2866 8.71337C22.1444 6.57021 19.5488 5.49908 16.5 5.5C13.4512 5.50092 10.8556 6.5725 8.71338 8.71475C6.57113 10.857 5.5 13.4521 5.5 16.5C5.5 17.8521 5.72367 19.124 6.171 20.3156C6.61833 21.5073 7.24258 22.5729 8.04375 23.5125ZM16.5 17.875C15.1479 17.875 14.0076 17.4112 13.079 16.4835C12.1504 15.5558 11.6866 14.4155 11.6875 13.0625C11.6884 11.7095 12.1527 10.5692 13.0804 9.6415C14.008 8.71383 15.1479 8.25 16.5 8.25C17.8521 8.25 18.9924 8.71429 19.921 9.64288C20.8496 10.5715 21.3134 11.7113 21.3125 13.0625C21.3116 14.4137 20.8478 15.554 19.921 16.4835C18.9943 17.413 17.8539 17.8768 16.5 17.875ZM16.5 30.25C14.5979 30.25 12.8104 29.8888 11.1375 29.1665C9.46459 28.4442 8.00938 27.4647 6.77188 26.2281C5.53438 24.9915 4.55492 23.5363 3.8335 21.8625C3.11209 20.1887 2.75092 18.4012 2.75 16.5C2.74909 14.5988 3.11025 12.8113 3.8335 11.1375C4.55675 9.46367 5.53621 8.00846 6.77188 6.77188C8.00754 5.53529 9.46275 4.55583 11.1375 3.8335C12.8123 3.11117 14.5998 2.75 16.5 2.75C18.4003 2.75 20.1878 3.11117 21.8625 3.8335C23.5373 4.55583 24.9925 5.53529 26.2281 6.77188C27.4638 8.00846 28.4437 9.46367 29.1679 11.1375C29.892 12.8113 30.2528 14.5988 30.25 16.5C30.2473 18.4012 29.8861 20.1887 29.1665 21.8625C28.4469 23.5363 27.4675 24.9915 26.2281 26.2281C24.9888 27.4647 23.5336 28.4446 21.8625 29.1679C20.1914 29.8911 18.4039 30.2518 16.5 30.25Z" fill="#888888"/>
</svg>
