<svg width="56" height="53" viewBox="0 0 56 53" fill="none" xmlns="http://www.w3.org/2000/svg">
<path d="M11.6667 46.3752C10.3833 46.3752 9.28511 45.9431 8.372 45.0789C7.45889 44.2147 7.00156 43.1746 7 41.9585V11.0419C7 9.82728 7.45733 8.78789 8.372 7.9237C9.28667 7.0595 10.3849 6.62667 11.6667 6.6252H32.4917L27.825 11.0419H11.6667V41.9585H44.3333V26.6106L49 22.1939V41.9585C49 43.1731 48.5434 44.2132 47.6303 45.0789C46.7172 45.9446 45.6182 46.3767 44.3333 46.3752H11.6667ZM21 33.1252V23.7398L42.4083 3.47832C42.875 3.03665 43.4 2.7054 43.9833 2.48457C44.5667 2.26374 45.15 2.15332 45.7333 2.15332C46.3556 2.15332 46.949 2.26374 47.5137 2.48457C48.0783 2.7054 48.5932 3.03665 49.0583 3.47832L52.325 6.6252C52.7528 7.06686 53.0833 7.5549 53.3167 8.08932C53.55 8.62374 53.6667 9.16625 53.6667 9.71686C53.6667 10.2675 53.5601 10.8107 53.347 11.3466C53.1339 11.8825 52.7932 12.3698 52.325 12.8085L30.9167 33.1252H21ZM25.6667 28.7085H28.9333L42.4667 15.9002L40.8333 14.3544L39.1417 12.8085L25.6667 25.5617V28.7085Z" fill="#CE499C"/>
</svg>
