<svg width="40" height="44" viewBox="0 0 40 44" fill="none" xmlns="http://www.w3.org/2000/svg">
<path fill-rule="evenodd" clip-rule="evenodd" d="M16.5654 23.1848L12.82 21.8115C8.89805 20.3734 6.93701 19.6544 6.93701 18.3331C6.93701 17.0117 8.89803 16.2926 12.8201 14.8546L27.0087 9.65206C29.7684 8.64018 31.1482 8.13426 31.8765 8.93546C32.6049 9.73665 32.1449 11.2545 31.225 14.2901L26.4955 29.8976C25.1882 34.2118 24.5345 36.3689 23.3332 36.3689C22.132 36.3689 21.4784 34.2118 20.1709 29.8976L18.9225 25.7775L26.1784 17.7961C26.8292 17.0801 26.8292 15.9193 26.1784 15.2034C25.5275 14.4874 24.4722 14.4874 23.8214 15.2034L16.5654 23.1848Z" fill="white"/>
</svg>
