<svg width="157" height="147" viewBox="0 0 157 147" fill="none" xmlns="http://www.w3.org/2000/svg">
<ellipse cx="78.5" cy="73.5" rx="78.5" ry="73.5" fill="#004B22"/>
<path d="M71.2668 50.2468C73.9958 42.5102 75.3604 38.6419 77.5768 38.1057C78.1599 37.9648 78.7621 37.9648 79.3452 38.1057C81.5616 38.6419 82.9263 42.5102 85.6552 50.2468C87.2069 54.6465 87.9829 56.8464 89.4347 58.3426C89.8419 58.7623 90.2839 59.1361 90.7548 59.4587C92.4327 60.6089 94.5275 60.8223 98.7172 61.2489C105.809 61.9713 109.355 62.3325 110.438 64.6318C110.663 65.1083 110.815 65.6235 110.89 66.1571C111.248 68.7338 108.641 71.4308 103.427 76.8253L101.98 78.3236C99.5421 80.8457 98.3236 82.1067 97.6185 83.6804C97.1957 84.6243 96.9122 85.6413 96.7792 86.6896C96.5577 88.4379 96.9147 90.2673 97.6283 93.9261L97.8833 95.2335C99.1634 101.795 99.8035 105.075 99.0045 106.688C98.2871 108.137 96.9649 109.064 95.5046 109.143C93.879 109.231 91.5882 107.109 87.0067 102.863C83.9884 100.066 82.4792 98.6671 80.8038 98.121C79.273 97.6217 77.6491 97.6217 76.1182 98.121C74.4429 98.6671 72.9337 100.066 69.9152 102.863C65.3338 107.109 63.0431 109.231 61.4174 109.143C59.9571 109.064 58.6352 108.137 57.9175 106.688C57.1185 105.075 57.7586 101.795 59.0386 95.2335L59.2937 93.9261C60.0075 90.2673 60.3644 88.4379 60.1429 86.6896C60.01 85.6413 59.7265 84.6243 59.3036 83.6804C58.5987 82.1067 57.3799 80.8457 54.9423 78.3236L53.4944 76.8253C48.2806 71.4308 45.6736 68.7338 46.0327 66.1571C46.107 65.6235 46.2595 65.1083 46.4838 64.6318C47.5667 62.3325 51.1128 61.9713 58.2051 61.2489C62.3946 60.8223 64.4894 60.6089 66.1675 59.4587C66.6382 59.1361 67.0802 58.7623 67.4874 58.3426C68.9393 56.8464 69.7152 54.6465 71.2668 50.2468Z" fill="white" stroke="white" stroke-width="2"/>
</svg>
