<svg width="200" height="200" viewBox="0 0 200 200" fill="none" xmlns="http://www.w3.org/2000/svg">
<circle cx="100" cy="100" r="100" fill="#304B00"/>
<path d="M94.0878 80.278C96.7097 74.0087 98.0208 70.874 100.15 70.4396C100.711 70.3253 101.289 70.3253 101.849 70.4396C103.979 70.874 105.29 74.0087 107.912 80.278C109.403 83.8433 110.148 85.6259 111.543 86.8384C111.934 87.1785 112.359 87.4814 112.811 87.7428C114.424 88.6749 116.436 88.8478 120.462 89.1935C127.275 89.7789 130.683 90.0716 131.723 91.9348C131.939 92.321 132.085 92.7385 132.157 93.1709C132.501 95.2589 129.997 97.4444 124.987 101.816L123.596 103.03C121.254 105.074 120.083 106.095 119.406 107.371C119 108.136 118.727 108.96 118.6 109.809C118.387 111.226 118.73 112.708 119.415 115.673L119.66 116.733C120.89 122.05 121.505 124.708 120.738 126.015C120.048 127.189 118.778 127.94 117.375 128.004C115.813 128.076 113.612 126.356 109.21 122.915C106.31 120.649 104.86 119.515 103.251 119.073C101.78 118.668 100.22 118.668 98.7489 119.073C97.1392 119.515 95.6892 120.649 92.7891 122.915C88.3874 126.356 86.1865 128.076 84.6245 128.004C83.2216 127.94 81.9514 127.189 81.2619 126.015C80.4943 124.708 81.1092 122.05 82.3391 116.733L82.5841 115.673C83.2699 112.708 83.6128 111.226 83.4 109.809C83.2724 108.96 82.9999 108.136 82.5937 107.371C81.9164 106.095 80.7454 105.074 78.4034 103.03L77.0123 101.816C72.0029 97.4444 69.4982 95.2589 69.8432 93.1709C69.9146 92.7385 70.0611 92.321 70.2766 91.9348C71.317 90.0716 74.7241 89.7789 81.5382 89.1935C85.5635 88.8478 87.5761 88.6749 89.1884 87.7428C89.6406 87.4814 90.0653 87.1785 90.4566 86.8384C91.8515 85.6259 92.597 83.8433 94.0878 80.278Z" fill="white" stroke="white" stroke-width="2"/>
</svg>
