<svg width="157" height="147" viewBox="0 0 157 147" fill="none" xmlns="http://www.w3.org/2000/svg">
<ellipse cx="78.5" cy="73.5" rx="78.5" ry="73.5" fill="#004B22"/>
<path d="M70.9157 41.1033C68.0573 43.0997 49 57.2752 49 80.3349C49 83.9635 49.7393 87.5569 51.1758 90.9095C52.6122 94.2622 54.7176 97.3081 57.3719 99.874C60.0261 102.44 63.1771 104.476 66.645 105.864C70.0128 107.213 73.6151 107.926 77.2579 107.966C68.3875 107.798 61.25 100.794 61.25 92.1787C61.25 91.399 61.3085 90.6324 61.4214 89.8832C61.4262 89.8386 61.4321 89.7936 61.439 89.7486C62.8086 80.8516 71.2758 73.2984 75.3706 70.1128C76.6789 69.0951 78.4882 69.0951 79.7969 70.1128C83.8913 73.2984 92.3581 80.8516 93.7276 89.7486C93.7346 89.7936 93.7407 89.8386 93.7452 89.8832C93.8583 90.6324 93.9167 91.399 93.9167 92.1787C93.9167 100.794 86.779 107.798 77.9088 107.966C81.5515 107.926 85.1538 107.213 88.5218 105.864C91.9897 104.476 95.1404 102.44 97.7946 99.874C100.449 97.3081 102.555 94.2622 103.991 90.9095C105.379 87.6706 106.116 84.2066 106.164 80.7036C106.166 80.6582 106.167 80.6128 106.167 80.567L106.166 80.4423L106.167 80.3353C106.059 63.5951 94.343 54.4589 92.207 52.932C92.0069 52.7889 91.7407 52.7905 91.5406 52.9337C90.6839 53.5461 88.2984 55.3739 85.7365 58.417C85.4442 58.7641 84.87 58.6977 84.6724 58.2931C79.859 48.4458 73.1909 42.4689 71.616 41.1416C71.4126 40.9703 71.1341 40.9507 70.9157 41.1033Z" fill="white"/>
</svg>
