<svg width="200" height="200" viewBox="0 0 200 200" fill="none" xmlns="http://www.w3.org/2000/svg">
<circle cx="100" cy="100" r="100" fill="#304B00"/>
<path d="M94.3323 70.5684C91.474 72.5071 72.4166 86.2726 72.4166 108.665C72.4166 112.189 73.156 115.678 74.5924 118.934C76.0289 122.19 78.1343 125.147 80.7885 127.639C83.4427 130.131 86.5937 132.108 90.0616 133.456C93.4295 134.766 97.0318 135.458 100.675 135.497C91.8041 135.334 84.6666 128.533 84.6666 120.166C84.6666 119.409 84.7251 118.665 84.838 117.937C84.8428 117.894 84.8487 117.85 84.8556 117.807C86.2252 109.167 94.6924 101.832 98.7872 98.7387C100.096 97.7505 101.905 97.7505 103.214 98.7387C107.308 101.832 115.775 109.167 117.144 117.807C117.151 117.85 117.157 117.894 117.162 117.937C117.275 118.665 117.333 119.409 117.333 120.166C117.333 128.533 110.196 135.334 101.325 135.497C104.968 135.458 108.57 134.766 111.938 133.456C115.406 132.108 118.557 130.131 121.211 127.639C123.866 125.147 125.971 122.19 127.408 118.934C128.795 115.789 129.532 112.425 129.581 109.023C129.582 108.979 129.583 108.935 129.583 108.891L129.583 108.769L129.583 108.666C129.475 92.4096 117.76 83.5377 115.624 82.055C115.424 81.916 115.157 81.9175 114.957 82.0566C114.101 82.6513 111.715 84.4262 109.153 87.3813C108.861 87.7183 108.287 87.6539 108.089 87.261C103.276 77.6985 96.6075 71.8945 95.0326 70.6056C94.8292 70.4393 94.5507 70.4202 94.3323 70.5684Z" fill="white"/>
</svg>
