<svg width="38" height="33" viewBox="0 0 38 33" fill="none" xmlns="http://www.w3.org/2000/svg">
<g clip-path="url(#clip0_488_25)">
<path d="M38 7.50344V26.6283C38 27.8713 36.841 28.8778 35.4097 28.8778H29.3629V16.1288L19 22.8801L8.63708 16.1288V28.8792H2.59033C2.25003 28.8792 1.91307 28.821 1.59869 28.7078C1.28431 28.5947 0.998687 28.4289 0.758132 28.2198C0.517576 28.0108 0.326807 27.7627 0.196723 27.4896C0.0666399 27.2165 -0.000207524 26.9238 4.83948e-07 26.6283V7.50344C4.83948e-07 4.72181 3.65592 3.13369 6.21775 4.80294L8.63708 6.38006L19 13.1286L29.3629 6.37731L31.7823 4.80294C34.3425 3.13506 38 4.72181 38 7.50344Z" fill="white"/>
</g>
<defs>
<clipPath id="clip0_488_25">
<rect width="38" height="33" fill="white"/>
</clipPath>
</defs>
</svg>
