<svg width="157" height="147" viewBox="0 0 157 147" fill="none" xmlns="http://www.w3.org/2000/svg">
<ellipse cx="78.5" cy="73.5" rx="78.5" ry="73.5" fill="#004B22"/>
<path d="M76.0616 82.431H68.2977C60.3164 82.431 56.3258 82.431 54.6545 80.3158C52.9832 78.2002 54.6598 75.2714 58.0129 69.413L73.4906 42.373C75.6111 38.6685 76.6708 36.8163 77.7831 37.0144C78.8949 37.2125 78.8949 39.2536 78.8949 43.3358V63.6394C78.8949 64.7197 78.8949 65.26 79.3097 65.5955C79.7245 65.931 80.3926 65.931 81.7283 65.931H89.4922C97.4737 65.931 101.464 65.931 103.135 68.0462C104.806 70.1619 103.13 73.0907 99.7772 78.9486L84.2992 105.989C82.1788 109.694 81.1191 111.546 80.0067 111.348C78.8949 111.15 78.8949 109.108 78.8949 105.026V84.7227C78.8949 83.6424 78.8949 83.102 78.4801 82.7665C78.0653 82.431 77.3972 82.431 76.0616 82.431Z" fill="white"/>
</svg>
