<svg width="201" height="200" viewBox="0 0 201 200" fill="none" xmlns="http://www.w3.org/2000/svg">
<circle cx="100.5" cy="100" r="100" fill="#304B00"/>
<path d="M96.7083 112.35H90.4287C83.9732 112.35 80.7455 112.35 79.3938 110.466C78.042 108.581 79.398 105.971 82.1101 100.752L94.6289 76.662C96.3439 73.3616 97.201 71.7115 98.1007 71.8879C99 72.0644 99 73.8828 99 77.5197V95.6084C99 96.5708 99 97.0522 99.3355 97.3511C99.671 97.65 100.211 97.65 101.292 97.65H107.571C114.027 97.65 117.254 97.65 118.606 99.5345C119.958 101.419 118.602 104.029 115.89 109.248L103.371 133.338C101.656 136.639 100.799 138.289 99.8992 138.112C99 137.936 99 136.117 99 132.48V114.392C99 113.429 99 112.948 98.6645 112.649C98.329 112.35 97.7886 112.35 96.7083 112.35Z" fill="white"/>
</svg>
