<svg width="38" height="35" viewBox="0 0 38 35" fill="none" xmlns="http://www.w3.org/2000/svg">
<path d="M10.5761 4.842L11.5471 3.94765C12.1654 3.37813 13.1679 3.37813 13.7863 3.94765L17.8804 7.71858C18.4987 8.2881 18.4987 9.21146 17.8804 9.78098L15.0424 12.3949C14.5692 12.8308 14.4519 13.4967 14.7512 14.048C16.4814 17.2352 19.2872 19.8196 22.7476 21.4132C23.3463 21.6888 24.0692 21.5808 24.5425 21.1449L27.3804 18.531C27.9987 17.9615 29.0013 17.9615 29.6196 18.531L33.7138 22.3019C34.3321 22.8714 34.3321 23.7948 33.7138 24.3643L32.7427 25.2587C29.3998 28.3377 24.1074 28.6842 20.3253 26.0714L18.412 24.7497C15.6513 22.8428 13.199 20.5842 11.1286 18.0414L9.69359 16.2792C6.85698 12.7956 7.2331 7.92105 10.5761 4.842Z" fill="white"/>
</svg>
