<svg width="34" height="34" viewBox="0 0 34 34" fill="none" xmlns="http://www.w3.org/2000/svg">
<path d="M30 0C30.9946 0 31.9484 0.395088 32.6516 1.09835C33.3549 1.80161 33.75 2.75544 33.75 3.75V30C33.75 30.9946 33.3549 31.9484 32.6516 32.6516C31.9484 33.3549 30.9946 33.75 30 33.75H3.75C2.75544 33.75 1.80161 33.3549 1.09835 32.6516C0.395088 31.9484 0 30.9946 0 30V3.75C0 2.75544 0.395088 1.80161 1.09835 1.09835C1.80161 0.395088 2.75544 0 3.75 0H30ZM29.0625 29.0625V19.125C29.0625 17.5039 28.4185 15.9491 27.2722 14.8028C26.1259 13.6565 24.5711 13.0125 22.95 13.0125C21.3562 13.0125 19.5 13.9875 18.6 15.45V13.3688H13.3688V29.0625H18.6V19.8187C18.6 18.375 19.7625 17.1938 21.2063 17.1938C21.9024 17.1938 22.5701 17.4703 23.0624 17.9626C23.5547 18.4549 23.8313 19.1226 23.8313 19.8187V29.0625H29.0625ZM7.275 10.425C8.11043 10.425 8.91165 10.0931 9.50239 9.50239C10.0931 8.91165 10.425 8.11043 10.425 7.275C10.425 5.53125 9.01875 4.10625 7.275 4.10625C6.4346 4.10625 5.62861 4.4401 5.03436 5.03436C4.4401 5.62861 4.10625 6.4346 4.10625 7.275C4.10625 9.01875 5.53125 10.425 7.275 10.425ZM9.88125 29.0625V13.3688H4.6875V29.0625H9.88125Z" fill="black"/>
</svg>
