<svg width="45" height="45" viewBox="0 0 45 45" fill="none" xmlns="http://www.w3.org/2000/svg">
<path fill-rule="evenodd" clip-rule="evenodd" d="M32.2577 20.2424L35.6252 16.8749C36.6476 15.8526 37.1587 15.3414 37.4319 14.79C37.9518 13.7408 37.9518 12.509 37.4319 11.4599C37.1587 10.9084 36.6476 10.3973 35.6252 9.37492C34.6029 8.35257 34.0916 7.84141 33.5402 7.56815C32.4911 7.04825 31.2592 7.04825 30.2101 7.56815C29.6587 7.84141 29.1476 8.35257 28.1252 9.37492L24.7153 12.7849C26.5224 15.8798 29.1215 18.459 32.2577 20.2424ZM21.9881 15.512L9.1059 28.3942C8.30892 29.1912 7.91042 29.5897 7.64841 30.0792C7.38642 30.5688 7.27589 31.1214 7.05484 32.2267L5.90097 37.996C5.77624 38.6197 5.71388 38.9315 5.89127 39.1089C6.06867 39.2862 6.38048 39.2238 7.00412 39.0991L12.7735 37.9452C13.8787 37.7242 14.4313 37.6137 14.9209 37.3516C15.4104 37.0897 15.8089 36.6912 16.6059 35.8942L29.5235 22.9765C26.4828 21.0723 23.9109 18.5179 21.9881 15.512Z" fill="#FBFBFB"/>
</svg>
