<svg width="29" height="29" viewBox="0 0 29 29" fill="none" xmlns="http://www.w3.org/2000/svg">
<path d="M29 7.59746C29.0011 7.40664 28.9645 7.21748 28.8923 7.04083C28.8202 6.86418 28.7139 6.70351 28.5795 6.56803L22.4315 0.420493C22.296 0.286115 22.1353 0.179801 21.9587 0.107648C21.782 0.0354946 21.5928 -0.00107898 21.402 2.42339e-05C21.2112 -0.00107898 21.022 0.0354946 20.8453 0.107648C20.6687 0.179801 20.508 0.286115 20.3725 0.420493L16.269 4.52369L0.420523 20.371C0.286136 20.5065 0.179814 20.6672 0.107656 20.8438C0.0354972 21.0205 -0.00107906 21.2096 2.42357e-05 21.4004V27.548C2.42357e-05 27.9325 0.152791 28.3013 0.424719 28.5732C0.696646 28.8451 1.06546 28.9979 1.45002 28.9979H7.59801C7.80091 29.0089 8.00386 28.9772 8.1937 28.9047C8.38354 28.8323 8.55604 28.7208 8.70001 28.5774L24.4615 12.7301L28.5795 8.69937C28.7116 8.55868 28.8194 8.39699 28.8985 8.22091C28.9124 8.10534 28.9124 7.98851 28.8985 7.87294C28.9053 7.80544 28.9053 7.73744 28.8985 7.66995L29 7.59746ZM7.00351 26.0981H2.90002V21.9949L17.2985 7.59746L21.402 11.7007L7.00351 26.0981ZM23.4465 9.6563L19.343 5.55311L21.402 3.50876L25.491 7.59746L23.4465 9.6563Z" fill="#500040"/>
</svg>
