<svg width="27" height="29" viewBox="0 0 27 29" fill="none" xmlns="http://www.w3.org/2000/svg">
<path fill-rule="evenodd" clip-rule="evenodd" d="M10.5659 15.1851L6.82053 13.8117C2.89853 12.3737 0.9375 11.6546 0.9375 10.3333C0.9375 9.01191 2.89852 8.29287 6.82055 6.8548L21.0092 1.6523C23.7688 0.640429 25.1487 0.134502 25.877 0.935706C26.6053 1.73689 26.1453 3.25471 25.2255 6.29032L20.496 21.8978C19.1887 26.212 18.535 28.3691 17.3337 28.3691C16.1325 28.3691 15.4789 26.212 14.1714 21.8978L12.923 17.7778L20.1788 9.79633C20.8297 9.08038 20.8297 7.91957 20.1788 7.20361C19.528 6.48764 18.4727 6.48764 17.8218 7.20361L10.5659 15.1851Z" fill="white"/>
</svg>
